<svg version="1" xmlns="http://www.w3.org/2000/svg" width="933.333" height="933.333" viewBox="0 0 700.000000 700.000000"><path d="M0 350v350h700V0H0v350zM299 37.5c12.5 3.2 21.6 9.2 28.6 18.7 10.6 14.4 13 35.3 6.2 53.7-5.2 14.1-18.6 29.1-49.3 55.3-24.9 21.2-36.5 33.1-36.5 37.5 0 1.1 7.9 1.3 45 1.3h45v22H214v-2.4c0-4.3 1.9-12.6 4.3-18.4 5.7-14.1 16.5-26.1 45.6-50.6 25-21 38.7-34.9 43-43.4 8-15.8 8.1-32.7.3-44.4C302 58.8 291.3 54 279 54c-17.6 0-31.8 11.4-34.5 27.7-1.4 7.8-.4 7.3-13.6 7.3H219v-2.8c0-1.5.7-5.5 1.5-8.7 5.6-22 22.5-37.3 45.7-41.5 7.4-1.3 25.1-.5 32.8 1.5zm139.1-1.1c18.7 4 32.7 17.5 40 38.8 10.4 30.6 10.6 82.8.4 112.8-7.4 21.8-21.8 36-40.3 39.9-7.4 1.5-20.5 1.3-28.1-.4-18.9-4.5-33.1-19.8-40-43-4.4-15.2-5.5-25.5-5.5-52.5 0-27.6 1.1-37.5 6.1-53.5 7.3-23.3 21.3-37.8 40.7-42 8.1-1.8 18.6-1.8 26.7-.1zm-135.8 220c12.6 4.2 20.5 10.1 26.9 20 10.5 16.2 11.2 38.4 1.9 57.1-6.7 13.3-17.5 24.6-49.6 52-22.4 19.1-33.5 30.8-33.5 35.2 0 1 9.7 1.3 45 1.3h45v22H214v-2.4c0-4 1.8-11.9 4-17.9 5-13.5 17.4-27.4 44.4-49.9 23.3-19.5 40.1-36.3 44.3-44.4 9.1-17.3 8.2-37.2-2.2-47.9-7.1-7.3-11.9-9-25-9-9.1 0-11.8.4-15.6 2.1-5.8 2.7-12.3 8.5-15.4 13.8-2.1 3.7-3 6.4-5 15.8l-.5 2.8h-24v-2.8c0-4.5 2.8-14.2 6-20.9 7.2-14.7 22.9-26.1 40.3-29.3 2.9-.5 10.6-.7 17.2-.6 9.7.3 13.5.9 19.8 3zm136.5-1.9c25.2 6 40 27.1 45.4 65 2 13.7 1.7 51.4-.6 65-3.5 21.7-10.1 37-20.6 47.5-11 11.1-23.8 15.6-41.5 14.7-16.2-.9-26.2-5.2-35.9-15.8-9.9-10.6-16.4-26.8-19.8-48.9-1.7-11.4-1.7-52.7 0-64 5.2-33.4 18.2-54.3 38.2-61.5 10.3-3.7 24.2-4.5 34.8-2zm-143 218.1c22.9 4.7 38.1 20.7 41.3 43.4 1 7.2 1 10-.4 18-3.6 21.3-14.9 35.5-55.2 69.4-21.5 18.1-33.5 30.7-33.5 35.3 0 1.1 8.2 1.3 45 1.3h45v22H213.7l.6-5.9c.8-7.2 4.3-17.2 8.8-24.8 4.8-8 25.3-28.4 45.9-45.5 36.2-30 45.2-43.7 43.7-66.1-.9-13.1-6.8-22.1-17.6-27-7.1-3.2-21.8-3.6-29.2-.8-6.7 2.5-13.9 8.6-17.3 14.4-2.2 3.8-3.1 6.5-5.1 15.9l-.5 2.8h-24v-2.8c0-1.5.7-5.5 1.5-8.7 5.6-21.9 21.8-36.9 44.6-41.4 7.3-1.4 22.5-1.2 30.7.5zm142.4-.5c22.3 4.7 37.5 23.2 43.8 53.3 5.9 27.9 5 68.2-2 93.6-8.2 29.5-27.9 46-55 46-22.5 0-39.5-10.7-49.3-31-8.5-17.7-11.2-33.3-11.2-66 0-32.2 2.6-48 10.9-65.5 7.4-15.8 19.6-26.4 34.2-29.9 7.2-1.7 21.4-2 28.6-.5z"/><path d="M416.1 55.1c-13.8 4.2-22.2 18.8-25.6 44.5-1.8 13.4-2 47.7-.5 62.2 2.8 25.5 10.4 40.7 23.2 46.2 7.4 3.2 19.5 2.6 26-1.3 15.6-9.1 21.8-30.5 21.8-74.9 0-53.2-10.3-76.4-34.4-77.4-3.9-.2-8.6.1-10.5.7zM414.1 273.7c-6 2.1-13.5 9.8-17.1 17.6-5.3 11.4-7.1 23.3-7.7 50.9-.8 35.4 1.4 53.7 8.2 67.5 6 12.2 15.2 18.3 27.5 18.3 20.6 0 31.8-16.4 35.1-51.5 1.5-15.9.7-52.7-1.5-65-3.7-21.4-11.3-33.7-23.6-38-5.4-1.9-15.2-1.8-20.9.2zM412.3 492.5c-10.4 5.3-16.6 15.4-20.5 33.5-2.1 9.7-2.2 13-2.2 42s.1 32.3 2.2 42c5.6 25.6 17.2 37.2 35.8 35.7 8.7-.7 15.6-4.6 21-11.9 8.2-11.2 11.2-25.5 12.1-57.9 1.2-48.3-4.9-72.3-21.1-82.3-4.1-2.6-5.9-3-13.4-3.4-7.8-.3-9.2-.1-13.9 2.3z"/></svg>